<svg width="1280" height="720" viewBox="0 0 1280 720" fill="none" xmlns="http://www.w3.org/2000/svg">
<g clip-path="url(#clip0_266_3)">
<rect width="965" height="720" fill="url(#paint0_linear_266_3)"/>
<path d="M316.189 177.83C292.155 177.83 274.221 160.872 274.221 134.276C274.221 109.144 290.325 91.332 314.481 91.332C337.295 91.332 347.665 103.776 347.665 112.682C347.665 116.952 344.493 122.442 337.783 122.442C322.167 122.442 324.607 101.824 310.455 101.824C302.159 101.824 297.889 108.534 297.889 121.832C297.889 143.304 309.357 158.066 323.265 158.066C331.317 158.066 335.709 156.236 341.321 150.38C342.785 148.916 344.615 147.696 345.957 147.696C348.763 147.696 350.593 149.648 350.593 152.698C350.593 154.772 350.105 156.724 349.251 158.798C345.835 167.582 334.977 177.83 316.189 177.83ZM363.272 176C359.246 176 355.83 175.512 355.83 171.73C355.83 167.582 361.198 167.338 361.198 162.458V134.032C361.32 129.884 359.856 128.176 358.392 127.078C355.952 125.37 354.122 124.638 354.122 121.832C354.122 117.684 368.274 113.292 375.106 113.292C379.254 113.292 380.596 115.122 380.596 119.636V125.248H381.328C384.256 117.074 390.844 113.292 396.212 113.292C403.654 113.292 407.07 117.928 407.07 124.638C407.07 131.836 403.166 135.74 396.456 135.74C392.674 135.74 391.576 134.52 388.038 134.52C385.232 134.52 383.036 136.228 383.036 142.328V162.458C383.036 167.338 388.404 167.582 388.404 171.73C388.404 175.512 384.988 176 380.962 176H363.272ZM443.824 177.83C424.792 177.83 409.542 166.728 409.42 146.598C409.542 126.224 425.646 113.17 444.434 113.17C463.1 113.17 477.984 124.028 478.106 144.402C477.984 164.776 462.978 177.83 443.824 177.83ZM447.118 167.948C452.608 167.948 455.536 163.434 455.536 155.382C455.536 143.426 450.534 123.052 440.53 123.052C434.674 123.052 431.99 127.566 431.99 135.374C431.99 147.696 436.992 167.948 447.118 167.948Z" fill="black"/>
<path d="M517.302 177.708C495.83 177.708 484.24 164.044 484.24 146.476C484.24 126.468 499.124 113.292 516.936 113.292C531.332 113.292 542.556 121.588 542.556 130.738C542.556 134.642 540.116 139.766 533.894 139.766C526.33 139.766 524.012 134.398 521.816 129.64C519.986 125.98 518.4 122.808 513.276 122.808C506.932 122.808 503.882 129.396 503.882 137.204C503.882 151.966 511.934 161.604 522.06 161.604C527.916 161.604 531.576 159.896 535.724 155.504C536.944 154.284 538.164 153.674 539.262 153.674C541.458 153.674 543.044 155.504 543.044 158.066C543.044 159.652 542.678 161.238 542.068 162.824C539.506 169.778 531.21 177.708 517.302 177.708ZM573.833 177.708C556.753 177.708 548.213 169.656 548.213 162.336C548.213 158.554 551.141 155.504 554.801 155.504C565.049 155.504 565.293 168.192 573.589 168.192C577.371 168.192 579.567 166.362 579.567 162.946C579.567 158.676 576.029 155.748 567.123 151.722C556.753 147.086 550.043 142.328 550.043 132.08C550.043 119.758 561.389 113.17 575.053 113.17C591.035 113.17 600.063 119.88 600.063 127.444C600.063 131.104 597.257 134.276 593.719 134.276C583.471 134.276 584.081 122.808 575.053 122.808C571.759 122.808 569.807 124.76 569.807 127.322C569.807 130.982 570.905 133.056 582.861 138.668C592.865 143.426 599.941 148.428 599.941 158.676C599.941 169.778 589.937 177.708 573.833 177.708ZM632.093 177.708C615.013 177.708 606.473 169.656 606.473 162.336C606.473 158.554 609.401 155.504 613.061 155.504C623.309 155.504 623.553 168.192 631.849 168.192C635.631 168.192 637.827 166.362 637.827 162.946C637.827 158.676 634.289 155.748 625.383 151.722C615.013 147.086 608.303 142.328 608.303 132.08C608.303 119.758 619.649 113.17 633.313 113.17C649.295 113.17 658.323 119.88 658.323 127.444C658.323 131.104 655.517 134.276 651.979 134.276C641.731 134.276 642.341 122.808 633.313 122.808C630.019 122.808 628.067 124.76 628.067 127.322C628.067 130.982 629.165 133.056 641.121 138.668C651.125 143.426 658.201 148.428 658.201 158.676C658.201 169.778 648.197 177.708 632.093 177.708Z" fill="#475763"/>
<path d="M304.444 565.904C305.72 565.904 306.424 566.564 306.424 567.62C306.424 569.248 304.268 569.292 303.828 570.744L297.844 591.688C296.7 595.208 295.908 596.616 292.652 596.616C289.88 596.616 288.692 595.472 287.812 592.656L284.38 581.876L280.86 591.732C279.496 595.252 278.792 596.616 275.492 596.616C272.588 596.616 271.664 595.516 270.564 592.7L262.864 571.976C261.764 568.808 260.268 569.732 260.268 567.752C260.268 566.916 260.972 566.124 262.644 566.124H271.004C272.632 566.124 273.336 566.652 273.336 567.796C273.336 568.808 272.764 569.204 272.192 569.556C271.444 569.996 271.048 570.436 271.268 571.36L276.768 587.992C277.076 589.136 277.912 589.048 278.22 588.036L282.444 575.848L281.168 571.888C280.068 568.764 278.572 569.644 278.572 567.664C278.572 566.828 279.276 566.08 280.904 566.08H288.956C290.584 566.08 291.288 566.608 291.288 567.708C291.288 568.764 290.716 569.16 290.144 569.512C289.396 569.908 289 570.392 289.22 571.272L293.752 587.948C294.06 589.18 294.94 588.96 295.204 587.948L299.692 570.788C299.912 569.952 299.384 569.336 298.768 568.896C298.328 568.588 297.888 568.236 297.888 567.4C297.888 566.388 298.504 565.904 300.088 565.904H304.444ZM310.432 596C308.98 596 307.792 595.824 307.792 594.46C307.792 592.964 309.728 592.876 309.728 591.116V570.612C309.728 569.116 309.244 568.5 308.672 568.104C307.836 567.488 307.132 567.224 307.132 566.212C307.132 564.716 312.412 563.132 314.7 563.132C316.24 563.132 316.724 563.836 316.724 565.42V577.388H316.944C318.308 575.056 320.596 573.34 323.94 573.34C329.616 573.34 331.42 577.3 331.42 583.416V591.116C331.42 592.876 333.356 592.964 333.356 594.504C333.356 595.824 332.124 596 330.672 596H324.292C322.84 596 321.608 595.824 321.608 594.504C321.608 592.964 323.544 592.876 323.544 591.116V584.384C323.544 581.04 322.752 579.236 320.64 579.236C318.484 579.236 317.56 581.26 317.56 583.988V591.116C317.56 592.876 319.496 592.964 319.496 594.46C319.496 595.824 318.308 596 316.812 596H310.432ZM341.587 596.616C337.275 596.616 335.207 593.624 335.207 590.808C335.207 585.572 341.499 584.428 345.503 582.184C347.527 581.172 348.319 580.204 348.319 578.62C348.319 577.212 347.615 576.112 346.031 576.112C344.491 576.112 343.479 577.256 342.907 578.664C342.159 580.996 341.015 581.964 339.211 581.964C337.627 581.964 336.131 580.952 336.131 578.884C336.131 576.552 339.211 573.34 346.163 573.34C353.599 573.34 356.327 577.256 356.459 584.164V590.94C356.459 593.624 358.395 592.656 358.395 594.504C358.395 595.692 356.855 596.66 354.259 596.66C351.179 596.66 349.463 594.944 349.463 592.964V592.568H349.243C347.835 595.12 345.547 596.616 341.587 596.616ZM345.151 591.732C347.043 591.732 348.759 590.324 348.759 587.244V584.56L346.603 585.396C344.227 586.32 342.731 587.508 342.731 589.224C342.731 590.808 343.787 591.732 345.151 591.732ZM370.563 596.616C362.423 596.616 362.247 590.236 362.247 585.572V577.564H360.971C359.959 577.52 359.255 576.948 359.255 575.848C359.255 574.352 360.179 574 361.323 574H361.807C366.999 574 365.635 566.432 368.671 566.432C369.903 566.432 370.123 567.268 370.123 569.16V574H374.303C375.403 574 376.239 574.352 376.239 575.672C376.239 576.948 375.711 577.564 374.127 577.564H370.167V589.708C370.167 591.82 370.255 593.14 371.663 593.14C372.807 593.14 373.379 592.216 373.379 589.532C373.379 587.728 374.171 586.584 375.843 586.584C377.383 586.584 378.263 587.596 378.263 589.664C378.263 592.876 376.459 596.616 370.563 596.616ZM381.25 575.408C380.722 575.408 379.842 574.968 379.842 574.352C379.842 574.044 379.974 573.824 380.326 573.472C381.294 572.416 383.142 570.524 383.67 568.676C383.274 568.808 382.834 568.852 382.394 568.852C380.282 568.852 378.61 567.444 378.61 565.2C378.61 562.164 380.942 560.8 383.45 560.8C386.354 560.8 388.51 562.56 388.51 566.124C388.51 569.028 386.794 571.976 384.55 573.736C383.406 574.66 382.042 575.408 381.25 575.408ZM398.844 596.616C392.684 596.616 389.604 593.712 389.604 591.072C389.604 589.708 390.66 588.608 391.98 588.608C395.676 588.608 395.764 593.184 398.756 593.184C400.12 593.184 400.912 592.524 400.912 591.292C400.912 589.752 399.636 588.696 396.424 587.244C392.684 585.572 390.264 583.856 390.264 580.16C390.264 575.716 394.356 573.34 399.284 573.34C405.048 573.34 408.304 575.76 408.304 578.488C408.304 579.808 407.292 580.952 406.016 580.952C402.32 580.952 402.54 576.816 399.284 576.816C398.096 576.816 397.392 577.52 397.392 578.444C397.392 579.764 397.788 580.512 402.1 582.536C405.708 584.252 408.26 586.056 408.26 589.752C408.26 593.756 404.652 596.616 398.844 596.616ZM430.118 596.616C421.978 596.616 421.802 590.236 421.802 585.572V577.564H420.526C419.514 577.52 418.81 576.948 418.81 575.848C418.81 574.352 419.734 574 420.878 574H421.362C426.554 574 425.19 566.432 428.226 566.432C429.458 566.432 429.678 567.268 429.678 569.16V574H433.858C434.958 574 435.794 574.352 435.794 575.672C435.794 576.948 435.266 577.564 433.682 577.564H429.722V589.708C429.722 591.82 429.81 593.14 431.218 593.14C432.362 593.14 432.934 592.216 432.934 589.532C432.934 587.728 433.726 586.584 435.398 586.584C436.938 586.584 437.818 587.596 437.818 589.664C437.818 592.876 436.014 596.616 430.118 596.616ZM441.616 596C440.164 596 438.976 595.824 438.976 594.46C438.976 592.964 440.912 592.876 440.912 591.116V570.612C440.912 569.116 440.428 568.5 439.856 568.104C439.02 567.488 438.316 567.224 438.316 566.212C438.316 564.716 443.596 563.132 445.884 563.132C447.424 563.132 447.908 563.836 447.908 565.42V577.388H448.128C449.492 575.056 451.78 573.34 455.124 573.34C460.8 573.34 462.604 577.3 462.604 583.416V591.116C462.604 592.876 464.54 592.964 464.54 594.504C464.54 595.824 463.308 596 461.856 596H455.476C454.024 596 452.792 595.824 452.792 594.504C452.792 592.964 454.728 592.876 454.728 591.116V584.384C454.728 581.04 453.936 579.236 451.824 579.236C449.668 579.236 448.744 581.26 448.744 583.988V591.116C448.744 592.876 450.68 592.964 450.68 594.46C450.68 595.824 449.492 596 447.996 596H441.616ZM486.279 587.948C487.027 587.948 487.643 588.608 487.643 589.532C487.643 590.06 487.511 590.588 487.291 591.16C486.235 593.976 483.155 596.616 478.403 596.616C471.055 596.616 466.391 592.216 466.391 585.484C466.391 578.532 470.967 573.428 478.051 573.428C484.167 573.428 487.687 577.344 487.687 581.392C487.687 583.856 486.587 584.956 484.167 584.956H473.651C474.355 588.696 476.643 590.808 480.163 590.808C482.099 590.808 483.375 590.28 484.959 588.608C485.399 588.168 485.839 587.948 486.279 587.948ZM477.303 576.816C474.971 576.816 473.519 579.236 473.431 582.096H480.603C480.691 581.788 480.735 581.348 480.735 580.996C480.735 578.928 479.987 576.816 477.303 576.816ZM501.342 596C499.89 596 498.702 595.824 498.702 594.46C498.702 592.964 500.638 592.876 500.638 591.116V570.612C500.638 569.116 500.154 568.5 499.582 568.104C498.746 567.488 498.042 567.224 498.042 566.212C498.042 564.716 503.322 563.132 505.61 563.132C507.15 563.132 507.634 563.836 507.634 565.42V577.388H507.854C509.218 575.056 511.506 573.34 514.85 573.34C520.526 573.34 522.33 577.3 522.33 583.416V591.116C522.33 592.876 524.266 592.964 524.266 594.504C524.266 595.824 523.034 596 521.582 596H515.202C513.75 596 512.518 595.824 512.518 594.504C512.518 592.964 514.454 592.876 514.454 591.116V584.384C514.454 581.04 513.662 579.236 511.55 579.236C509.394 579.236 508.47 581.26 508.47 583.988V591.116C508.47 592.876 510.406 592.964 510.406 594.46C510.406 595.824 509.218 596 507.722 596H501.342ZM546.006 587.948C546.754 587.948 547.37 588.608 547.37 589.532C547.37 590.06 547.238 590.588 547.018 591.16C545.962 593.976 542.882 596.616 538.13 596.616C530.782 596.616 526.118 592.216 526.118 585.484C526.118 578.532 530.694 573.428 537.778 573.428C543.894 573.428 547.414 577.344 547.414 581.392C547.414 583.856 546.314 584.956 543.894 584.956H533.378C534.082 588.696 536.37 590.808 539.89 590.808C541.826 590.808 543.102 590.28 544.686 588.608C545.126 588.168 545.566 587.948 546.006 587.948ZM537.03 576.816C534.698 576.816 533.246 579.236 533.158 582.096H540.33C540.418 581.788 540.462 581.348 540.462 580.996C540.462 578.928 539.714 576.816 537.03 576.816ZM569.96 590.896C571.06 592.48 573.04 592.216 573.04 594.196C573.04 595.252 572.468 596 570.664 596H562.612C560.852 596 560.236 595.296 560.236 594.284C560.236 593.228 561.292 592.92 561.292 592.128C561.292 591.908 561.16 591.644 560.808 591.248L558.432 588.124L555.704 591.336C554.868 592.348 555.528 592.832 556.188 593.36C556.584 593.668 556.98 593.976 556.98 594.592C556.98 595.692 556.012 596 554.516 596H550.6C548.928 596 548.444 595.34 548.444 594.592C548.444 593.14 549.456 593.008 550.864 591.424L556.232 585.22L551.348 578.84C550.336 577.476 548.4 577.784 548.4 575.804C548.4 574.66 549.016 574 550.776 574H558.872C560.676 574 561.336 574.616 561.336 575.628C561.336 576.816 560.28 576.992 560.28 577.828C560.28 578.092 560.412 578.4 560.764 578.84L562.964 581.7L565.516 578.664C566.308 577.696 565.648 577.168 564.988 576.684C564.636 576.376 564.24 576.024 564.24 575.408C564.24 574.308 565.208 574 566.704 574H570.62C572.292 574 572.732 574.704 572.732 575.452C572.732 576.86 571.764 576.992 570.312 578.62L565.12 584.56L569.96 590.896ZM595.018 596.616C587.274 596.616 583.094 591.688 583.094 585.352C583.094 578.136 588.462 573.384 594.886 573.384C600.078 573.384 604.126 576.376 604.126 579.676C604.126 581.084 603.246 582.932 601.002 582.932C598.274 582.932 597.438 580.996 596.646 579.28C595.986 577.96 595.414 576.816 593.566 576.816C591.278 576.816 590.178 579.192 590.178 582.008C590.178 587.332 593.082 590.808 596.734 590.808C598.846 590.808 600.166 590.192 601.662 588.608C602.102 588.168 602.542 587.948 602.938 587.948C603.73 587.948 604.302 588.608 604.302 589.532C604.302 590.104 604.17 590.676 603.95 591.248C603.026 593.756 600.034 596.616 595.018 596.616ZM618.662 596.66C611.798 596.66 606.298 592.656 606.254 585.396C606.298 578.048 612.106 573.34 618.882 573.34C625.614 573.34 630.982 577.256 631.026 584.604C630.982 591.952 625.57 596.66 618.662 596.66ZM619.85 593.096C621.83 593.096 622.886 591.468 622.886 588.564C622.886 584.252 621.082 576.904 617.474 576.904C615.362 576.904 614.394 578.532 614.394 581.348C614.394 585.792 616.198 593.096 619.85 593.096ZM635.835 596C634.383 596 633.195 595.824 633.195 594.46C633.195 592.964 635.131 592.876 635.131 591.116V570.612C635.131 568.896 634.559 568.368 633.899 567.84C633.107 567.268 632.579 567.048 632.579 566.124C632.579 564.54 637.991 563.132 640.191 563.132C642.083 563.132 642.963 564.144 642.963 565.508V591.116C642.963 592.876 644.899 592.964 644.899 594.46C644.899 595.824 643.711 596 642.215 596H635.835ZM659.44 596.66C652.576 596.66 647.076 592.656 647.032 585.396C647.076 578.048 652.884 573.34 659.66 573.34C666.392 573.34 671.76 577.256 671.804 584.604C671.76 591.952 666.348 596.66 659.44 596.66ZM660.628 593.096C662.608 593.096 663.664 591.468 663.664 588.564C663.664 584.252 661.86 576.904 658.252 576.904C656.14 576.904 655.172 578.532 655.172 581.348C655.172 585.792 656.976 593.096 660.628 593.096ZM676.837 596C675.385 596 674.153 595.824 674.153 594.46C674.153 592.964 676.089 592.876 676.089 591.116V580.864C676.133 579.368 675.605 578.752 675.077 578.356C674.197 577.74 673.537 577.476 673.537 576.464C673.537 574.968 678.641 573.384 681.105 573.384C682.601 573.384 683.085 574.044 683.085 575.672V577.696H683.349C684.405 574.748 686.781 573.384 688.717 573.384C691.401 573.384 692.633 575.056 692.633 577.476C692.633 580.072 691.225 581.48 688.805 581.48C687.441 581.48 687.045 581.04 685.769 581.04C684.757 581.04 683.965 581.656 683.965 583.856V591.116C683.965 592.876 685.901 592.964 685.901 594.46C685.901 595.824 684.669 596 683.217 596H676.837ZM331.567 652.66C324.703 652.66 319.203 648.656 319.159 641.396C319.203 634.048 325.011 629.34 331.787 629.34C338.519 629.34 343.887 633.256 343.931 640.604C343.887 647.952 338.475 652.66 331.567 652.66ZM332.755 649.096C334.735 649.096 335.791 647.468 335.791 644.564C335.791 640.252 333.987 632.904 330.379 632.904C328.267 632.904 327.299 634.532 327.299 637.348C327.299 641.792 329.103 649.096 332.755 649.096ZM348.965 652C347.513 652 346.281 651.824 346.281 650.46C346.281 648.964 348.217 648.92 348.217 647.16V633.564H347.249C346.061 633.564 345.533 632.64 345.533 631.716C345.533 630.704 346.193 630 347.425 630H348.393V628.812C348.393 621.42 352.529 619.132 356.797 619.132C360.625 619.132 362.693 621.596 362.693 624.148C362.693 626.304 361.153 627.492 359.657 627.492C357.589 627.492 357.061 626.392 356.797 625.248C356.445 623.488 356.005 622.96 355.037 622.96C353.849 622.96 352.969 624.016 352.969 625.864C352.969 627.58 353.585 628.768 354.773 630H357.941C359.129 630 359.965 630.44 359.965 631.672C359.965 632.948 359.437 633.564 357.853 633.564H356.093V647.116C356.093 648.876 358.029 648.964 358.029 650.46C358.029 651.824 356.797 652 355.345 652H348.965ZM381.026 652.616C372.886 652.616 372.71 646.236 372.71 641.572V633.564H371.434C370.422 633.52 369.718 632.948 369.718 631.848C369.718 630.352 370.642 630 371.786 630H372.27C377.462 630 376.098 622.432 379.134 622.432C380.366 622.432 380.586 623.268 380.586 625.16V630H384.766C385.866 630 386.702 630.352 386.702 631.672C386.702 632.948 386.174 633.564 384.59 633.564H380.63V645.708C380.63 647.82 380.718 649.14 382.126 649.14C383.27 649.14 383.842 648.216 383.842 645.532C383.842 643.728 384.634 642.584 386.306 642.584C387.846 642.584 388.726 643.596 388.726 645.664C388.726 648.876 386.922 652.616 381.026 652.616ZM392.524 652C391.072 652 389.884 651.824 389.884 650.46C389.884 648.964 391.82 648.876 391.82 647.116V626.612C391.82 625.116 391.336 624.5 390.764 624.104C389.928 623.488 389.224 623.224 389.224 622.212C389.224 620.716 394.504 619.132 396.792 619.132C398.332 619.132 398.816 619.836 398.816 621.42V633.388H399.036C400.4 631.056 402.688 629.34 406.032 629.34C411.708 629.34 413.512 633.3 413.512 639.416V647.116C413.512 648.876 415.448 648.964 415.448 650.504C415.448 651.824 414.216 652 412.764 652H406.384C404.932 652 403.7 651.824 403.7 650.504C403.7 648.964 405.636 648.876 405.636 647.116V640.384C405.636 637.04 404.844 635.236 402.732 635.236C400.576 635.236 399.652 637.26 399.652 639.988V647.116C399.652 648.876 401.588 648.964 401.588 650.46C401.588 651.824 400.4 652 398.904 652H392.524ZM437.187 643.948C437.935 643.948 438.551 644.608 438.551 645.532C438.551 646.06 438.419 646.588 438.199 647.16C437.143 649.976 434.063 652.616 429.311 652.616C421.963 652.616 417.299 648.216 417.299 641.484C417.299 634.532 421.875 629.428 428.959 629.428C435.075 629.428 438.595 633.344 438.595 637.392C438.595 639.856 437.495 640.956 435.075 640.956H424.559C425.263 644.696 427.551 646.808 431.071 646.808C433.007 646.808 434.283 646.28 435.867 644.608C436.307 644.168 436.747 643.948 437.187 643.948ZM428.211 632.816C425.879 632.816 424.427 635.236 424.339 638.096H431.511C431.599 637.788 431.643 637.348 431.643 636.996C431.643 634.928 430.895 632.816 428.211 632.816ZM450.084 652.616C443.924 652.616 440.844 649.712 440.844 647.072C440.844 645.708 441.9 644.608 443.22 644.608C446.916 644.608 447.004 649.184 449.996 649.184C451.36 649.184 452.152 648.524 452.152 647.292C452.152 645.752 450.876 644.696 447.664 643.244C443.924 641.572 441.504 639.856 441.504 636.16C441.504 631.716 445.596 629.34 450.524 629.34C456.288 629.34 459.544 631.76 459.544 634.488C459.544 635.808 458.532 636.952 457.256 636.952C453.56 636.952 453.78 632.816 450.524 632.816C449.336 632.816 448.632 633.52 448.632 634.444C448.632 635.764 449.028 636.512 453.34 638.536C456.948 640.252 459.5 642.056 459.5 645.752C459.5 649.756 455.892 652.616 450.084 652.616ZM481.832 643.948C482.58 643.948 483.196 644.608 483.196 645.532C483.196 646.06 483.064 646.588 482.844 647.16C481.788 649.976 478.708 652.616 473.956 652.616C466.608 652.616 461.944 648.216 461.944 641.484C461.944 634.532 466.52 629.428 473.604 629.428C479.72 629.428 483.24 633.344 483.24 637.392C483.24 639.856 482.14 640.956 479.72 640.956H469.204C469.908 644.696 472.196 646.808 475.716 646.808C477.652 646.808 478.928 646.28 480.512 644.608C480.952 644.168 481.392 643.948 481.832 643.948ZM472.856 632.816C470.524 632.816 469.072 635.236 468.984 638.096H476.156C476.244 637.788 476.288 637.348 476.288 636.996C476.288 634.928 475.54 632.816 472.856 632.816ZM509.831 652.66C501.163 652.66 494.695 646.544 494.695 636.952C494.695 627.888 500.503 621.464 509.215 621.464C517.443 621.464 521.183 625.952 521.183 629.164C521.183 630.704 520.039 632.684 517.619 632.684C511.987 632.684 512.867 625.248 507.763 625.248C504.771 625.248 503.231 627.668 503.231 632.464C503.231 640.208 507.367 645.532 512.383 645.532C515.287 645.532 516.871 644.872 518.895 642.76C519.423 642.232 520.083 641.792 520.567 641.792C521.579 641.792 522.239 642.496 522.239 643.596C522.239 644.344 522.063 645.048 521.755 645.796C520.523 648.964 516.607 652.66 509.831 652.66ZM526.812 652C525.36 652 524.128 651.824 524.128 650.46C524.128 648.964 526.064 648.876 526.064 647.116V636.864C526.108 635.368 525.58 634.752 525.052 634.356C524.172 633.74 523.512 633.476 523.512 632.464C523.512 630.968 528.616 629.384 531.08 629.384C532.576 629.384 533.06 630.044 533.06 631.672V633.696H533.324C534.38 630.748 536.756 629.384 538.692 629.384C541.376 629.384 542.608 631.056 542.608 633.476C542.608 636.072 541.2 637.48 538.78 637.48C537.416 637.48 537.02 637.04 535.744 637.04C534.732 637.04 533.94 637.656 533.94 639.856V647.116C533.94 648.876 535.876 648.964 535.876 650.46C535.876 651.824 534.644 652 533.192 652H526.812ZM555.863 652.66C548.999 652.66 543.499 648.656 543.455 641.396C543.499 634.048 549.307 629.34 556.083 629.34C562.815 629.34 568.183 633.256 568.227 640.604C568.183 647.952 562.771 652.66 555.863 652.66ZM557.051 649.096C559.031 649.096 560.087 647.468 560.087 644.564C560.087 640.252 558.283 632.904 554.675 632.904C552.563 632.904 551.595 634.532 551.595 637.348C551.595 641.792 553.399 649.096 557.051 649.096ZM582.364 652.616C574.62 652.616 570.44 647.688 570.44 641.352C570.44 634.136 575.808 629.384 582.232 629.384C587.424 629.384 591.472 632.376 591.472 635.676C591.472 637.084 590.592 638.932 588.348 638.932C585.62 638.932 584.784 636.996 583.992 635.28C583.332 633.96 582.76 632.816 580.912 632.816C578.624 632.816 577.524 635.192 577.524 638.008C577.524 643.332 580.428 646.808 584.08 646.808C586.192 646.808 587.512 646.192 589.008 644.608C589.448 644.168 589.888 643.948 590.284 643.948C591.076 643.948 591.648 644.608 591.648 645.532C591.648 646.104 591.516 646.676 591.296 647.248C590.372 649.756 587.38 652.616 582.364 652.616ZM602.752 652.616C596.592 652.616 593.512 649.712 593.512 647.072C593.512 645.708 594.568 644.608 595.888 644.608C599.584 644.608 599.672 649.184 602.664 649.184C604.028 649.184 604.82 648.524 604.82 647.292C604.82 645.752 603.544 644.696 600.332 643.244C596.592 641.572 594.172 639.856 594.172 636.16C594.172 631.716 598.264 629.34 603.192 629.34C608.956 629.34 612.212 631.76 612.212 634.488C612.212 635.808 611.2 636.952 609.924 636.952C606.228 636.952 606.448 632.816 603.192 632.816C602.004 632.816 601.3 633.52 601.3 634.444C601.3 635.764 601.696 636.512 606.008 638.536C609.616 640.252 612.168 642.056 612.168 645.752C612.168 649.756 608.56 652.616 602.752 652.616ZM623.077 643.332C621.141 643.332 620.525 642.804 620.525 640.956V637.788C620.525 634.928 626.553 632.552 626.553 627.316C626.553 625.424 625.629 624.368 623.825 624.368C621.933 624.368 621.273 625.512 620.657 626.744C619.645 628.9 618.413 629.78 616.741 629.78C614.805 629.78 613.749 628.504 613.749 626.876C613.749 624.06 617.533 621.332 624.001 621.332C631.041 621.332 634.693 624.588 634.693 629.296C634.693 636.688 625.189 636.644 625.189 639.152V641.22C625.189 642.628 624.573 643.332 623.077 643.332ZM623.077 652.704C620.921 652.704 619.117 651.472 619.117 649.272C619.117 647.16 620.877 645.84 623.077 645.84C625.497 645.84 627.169 647.204 627.169 649.272C627.169 651.472 625.453 652.704 623.077 652.704Z" fill="black"/>
<path d="M290.112 233.54C283.02 233.54 277.728 228.536 277.728 220.688C277.728 213.272 282.48 208.016 289.608 208.016C296.34 208.016 299.4 211.688 299.4 214.316C299.4 215.576 298.464 217.196 296.484 217.196C291.876 217.196 292.596 211.112 288.42 211.112C285.972 211.112 284.712 213.092 284.712 217.016C284.712 223.352 288.096 227.708 292.2 227.708C294.576 227.708 295.872 227.168 297.528 225.44C297.96 225.008 298.5 224.648 298.896 224.648C299.724 224.648 300.264 225.224 300.264 226.124C300.264 226.736 300.12 227.312 299.868 227.924C298.86 230.516 295.656 233.54 290.112 233.54ZM306.952 233.504C303.424 233.504 301.732 231.056 301.732 228.752C301.732 224.468 306.88 223.532 310.156 221.696C311.812 220.868 312.46 220.076 312.46 218.78C312.46 217.628 311.884 216.728 310.588 216.728C309.328 216.728 308.5 217.664 308.032 218.816C307.42 220.724 306.484 221.516 305.008 221.516C303.712 221.516 302.488 220.688 302.488 218.996C302.488 217.088 305.008 214.46 310.696 214.46C316.78 214.46 319.012 217.664 319.12 223.316V228.86C319.12 231.056 320.704 230.264 320.704 231.776C320.704 232.748 319.444 233.54 317.32 233.54C314.8 233.54 313.396 232.136 313.396 230.516V230.192H313.216C312.064 232.28 310.192 233.504 306.952 233.504ZM309.868 229.508C311.416 229.508 312.82 228.356 312.82 225.836V223.64L311.056 224.324C309.112 225.08 307.888 226.052 307.888 227.456C307.888 228.752 308.752 229.508 309.868 229.508ZM324.642 233C323.454 233 322.446 232.856 322.446 231.74C322.446 230.516 324.03 230.444 324.03 229.004V220.544C324.066 219.32 323.634 218.816 323.202 218.492C322.482 217.988 321.942 217.808 321.942 216.98C321.942 215.72 326.154 214.46 328.134 214.46C329.394 214.46 329.754 215 329.79 216.332V217.772H329.97C331.05 215.72 333.03 214.46 335.622 214.46C339.906 214.46 341.778 217.196 341.778 221.948V229.004C341.778 230.444 343.362 230.516 343.362 231.74C343.362 232.856 342.39 233 341.202 233H335.982C334.758 233 333.786 232.856 333.786 231.74C333.786 230.516 335.37 230.444 335.37 229.004V222.884C335.37 220.544 334.722 219.248 333.03 219.248C331.23 219.248 330.474 220.904 330.474 223.136V229.004C330.474 230.444 332.058 230.516 332.058 231.74C332.058 232.856 331.05 233 329.862 233H324.642ZM357.065 240.2C354.365 240.2 352.565 238.868 352.565 237.212C352.565 235.844 353.501 234.908 354.725 234.908C355.913 234.908 356.489 236.348 358.181 236.348C360.089 236.348 361.277 234.404 362.177 231.848C361.925 231.956 361.565 232.064 360.917 232.064C358.217 232.064 356.849 230.732 355.877 228.572C354.653 225.836 353.321 222.452 352.133 219.5C351.593 218.06 350.009 218.24 350.009 216.404C350.009 215.396 350.729 215 352.421 215H358.685C360.485 215 360.809 215.576 360.809 216.332C360.809 218.06 359.009 217.772 359.117 219.176C359.333 220.796 360.413 223.748 361.385 226.088C361.709 226.88 361.961 227.492 362.825 227.492C363.653 227.492 364.085 226.556 364.553 225.08C364.949 223.748 365.237 222.668 365.273 221.804C365.345 219.896 363.977 219.068 363.977 217.124C363.977 215.396 365.237 214.46 367.397 214.46C369.557 214.46 370.565 215.576 370.565 217.232C370.565 218.6 369.413 220.436 368.873 222.308C368.333 224.288 367.757 225.98 367.109 227.78C366.353 230.012 365.345 232.1 364.445 233.936C362.573 237.68 360.449 240.2 357.065 240.2ZM381.88 233.54C376.264 233.54 371.764 230.264 371.728 224.324C371.764 218.312 376.516 214.46 382.06 214.46C387.568 214.46 391.96 217.664 391.996 223.676C391.96 229.688 387.532 233.54 381.88 233.54ZM382.852 230.624C384.472 230.624 385.336 229.292 385.336 226.916C385.336 223.388 383.86 217.376 380.908 217.376C379.18 217.376 378.388 218.708 378.388 221.012C378.388 224.648 379.864 230.624 382.852 230.624ZM401.402 233.36C396.686 233.36 395.21 230.192 395.21 225.44V219.176C395.21 218.564 394.922 218.24 394.634 218.024C393.95 217.592 393.446 217.412 393.446 216.656C393.446 216.188 393.77 215.828 394.454 215.576C396.938 214.712 398.81 214.46 399.602 214.46C401.222 214.46 401.618 215.18 401.618 216.872V224.72C401.618 227.06 402.122 228.572 403.922 228.572C405.83 228.572 406.514 226.916 406.514 224.72L406.55 219.176C406.55 218.564 406.262 218.24 405.974 218.024C405.29 217.592 404.786 217.412 404.786 216.656C404.786 216.188 405.11 215.864 405.794 215.576C407.666 214.748 410.006 214.46 410.906 214.46C412.526 214.46 412.922 215.216 412.958 216.908L412.922 227.312C412.922 228.536 413.354 229.004 413.786 229.328C414.506 229.832 415.046 230.048 415.046 230.876C415.046 232.1 410.87 233.396 408.854 233.396C407.594 233.396 407.234 232.82 407.198 231.524V230.048H407.018C405.794 232.244 403.778 233.36 401.402 233.36ZM442.844 212.156C442.844 214.964 439.928 215.108 437.984 215.792C439.856 216.944 440.9 218.708 440.9 220.724C440.9 224.684 437.804 226.844 432.332 226.844C431.108 226.844 429.884 226.664 428.804 226.34C428.408 226.628 428.228 226.988 428.228 227.492C428.228 228.176 428.588 228.824 430.1 228.824C433.772 228.824 434.96 228.716 435.86 228.716C439.532 228.716 441.8 230.66 441.8 233.504C441.8 237.788 437.84 240.2 432.188 240.2C429.416 240.2 427.184 239.588 425.816 238.976C424.556 238.436 423.764 237.608 423.764 236.528C423.764 235.448 424.7 234.764 425.744 234.764C426.536 234.764 427.076 235.196 427.724 235.736C428.588 236.456 429.74 237.68 432.584 237.68C435.032 237.68 436.22 236.672 436.22 235.52C436.22 234.224 435.068 234.008 432.8 234.008L429.74 234.044C426.14 234.044 423.836 232.82 423.836 229.724C423.836 227.6 425.204 226.268 426.824 225.476C425.024 224.396 423.836 222.704 423.836 220.508C423.836 217.088 427.112 214.424 432.404 214.424C433.808 214.424 435.104 214.604 436.184 214.964C436.652 214.676 436.76 214.064 436.832 213.272C437.156 210.968 437.408 209.204 440.072 209.204C441.512 209.204 442.844 210.428 442.844 212.156ZM432.692 224.324C434.348 224.324 434.888 223.064 434.888 221.588C434.888 219.32 433.7 216.944 431.972 216.944C430.316 216.944 429.812 218.276 429.812 219.716C429.812 221.876 431 224.324 432.692 224.324ZM450.691 233.36C445.975 233.36 444.499 230.192 444.499 225.44V219.176C444.499 218.564 444.211 218.24 443.923 218.024C443.239 217.592 442.735 217.412 442.735 216.656C442.735 216.188 443.059 215.828 443.743 215.576C446.227 214.712 448.099 214.46 448.891 214.46C450.511 214.46 450.907 215.18 450.907 216.872V224.72C450.907 227.06 451.411 228.572 453.211 228.572C455.119 228.572 455.803 226.916 455.803 224.72L455.839 219.176C455.839 218.564 455.551 218.24 455.263 218.024C454.579 217.592 454.075 217.412 454.075 216.656C454.075 216.188 454.399 215.864 455.083 215.576C456.955 214.748 459.295 214.46 460.195 214.46C461.815 214.46 462.211 215.216 462.247 216.908L462.211 227.312C462.211 228.536 462.643 229.004 463.075 229.328C463.795 229.832 464.335 230.048 464.335 230.876C464.335 232.1 460.159 233.396 458.143 233.396C456.883 233.396 456.523 232.82 456.487 231.524V230.048H456.307C455.083 232.244 453.067 233.36 450.691 233.36ZM481.832 226.412C482.444 226.412 482.948 226.952 482.948 227.708C482.948 228.14 482.84 228.572 482.66 229.04C481.796 231.344 479.276 233.504 475.388 233.504C469.376 233.504 465.56 229.904 465.56 224.396C465.56 218.708 469.304 214.532 475.1 214.532C480.104 214.532 482.984 217.736 482.984 221.048C482.984 223.064 482.084 223.964 480.104 223.964H471.5C472.076 227.024 473.948 228.752 476.828 228.752C478.412 228.752 479.456 228.32 480.752 226.952C481.112 226.592 481.472 226.412 481.832 226.412ZM474.488 217.304C472.58 217.304 471.392 219.284 471.32 221.624H477.188C477.26 221.372 477.296 221.012 477.296 220.724C477.296 219.032 476.684 217.304 474.488 217.304ZM492.384 233.504C487.344 233.504 484.824 231.128 484.824 228.968C484.824 227.852 485.688 226.952 486.768 226.952C489.792 226.952 489.864 230.696 492.312 230.696C493.428 230.696 494.076 230.156 494.076 229.148C494.076 227.888 493.032 227.024 490.404 225.836C487.344 224.468 485.364 223.064 485.364 220.04C485.364 216.404 488.712 214.46 492.744 214.46C497.46 214.46 500.124 216.44 500.124 218.672C500.124 219.752 499.296 220.688 498.252 220.688C495.228 220.688 495.408 217.304 492.744 217.304C491.772 217.304 491.196 217.88 491.196 218.636C491.196 219.716 491.52 220.328 495.048 221.984C498 223.388 500.088 224.864 500.088 227.888C500.088 231.164 497.136 233.504 492.384 233.504ZM509.576 233.504C504.536 233.504 502.016 231.128 502.016 228.968C502.016 227.852 502.88 226.952 503.96 226.952C506.984 226.952 507.056 230.696 509.504 230.696C510.62 230.696 511.268 230.156 511.268 229.148C511.268 227.888 510.224 227.024 507.596 225.836C504.536 224.468 502.556 223.064 502.556 220.04C502.556 216.404 505.904 214.46 509.936 214.46C514.652 214.46 517.316 216.44 517.316 218.672C517.316 219.752 516.488 220.688 515.444 220.688C512.42 220.688 512.6 217.304 509.936 217.304C508.964 217.304 508.388 217.88 508.388 218.636C508.388 219.716 508.712 220.328 512.24 221.984C515.192 223.388 517.28 224.864 517.28 227.888C517.28 231.164 514.328 233.504 509.576 233.504ZM535.164 233.504C528.504 233.504 528.36 228.284 528.36 224.468V217.916H527.316C526.488 217.88 525.912 217.412 525.912 216.512C525.912 215.288 526.668 215 527.604 215H528C532.248 215 531.132 208.808 533.616 208.808C534.624 208.808 534.804 209.492 534.804 211.04V215H538.224C539.124 215 539.808 215.288 539.808 216.368C539.808 217.412 539.376 217.916 538.08 217.916H534.84V227.852C534.84 229.58 534.912 230.66 536.064 230.66C537 230.66 537.468 229.904 537.468 227.708C537.468 226.232 538.116 225.296 539.484 225.296C540.744 225.296 541.464 226.124 541.464 227.816C541.464 230.444 539.988 233.504 535.164 233.504ZM544.571 233C543.383 233 542.411 232.856 542.411 231.74C542.411 230.516 543.995 230.444 543.995 229.004V212.228C543.995 211.004 543.599 210.5 543.131 210.176C542.447 209.672 541.871 209.456 541.871 208.628C541.871 207.404 546.191 206.108 548.063 206.108C549.323 206.108 549.719 206.684 549.719 207.98V217.772H549.899C551.015 215.864 552.887 214.46 555.623 214.46C560.267 214.46 561.743 217.7 561.743 222.704V229.004C561.743 230.444 563.327 230.516 563.327 231.776C563.327 232.856 562.319 233 561.131 233H555.911C554.723 233 553.715 232.856 553.715 231.776C553.715 230.516 555.299 230.444 555.299 229.004V223.496C555.299 220.76 554.651 219.284 552.923 219.284C551.159 219.284 550.403 220.94 550.403 223.172V229.004C550.403 230.444 551.987 230.516 551.987 231.74C551.987 232.856 551.015 233 549.791 233H544.571ZM581.113 226.412C581.725 226.412 582.229 226.952 582.229 227.708C582.229 228.14 582.121 228.572 581.941 229.04C581.077 231.344 578.557 233.504 574.669 233.504C568.657 233.504 564.841 229.904 564.841 224.396C564.841 218.708 568.585 214.532 574.381 214.532C579.385 214.532 582.265 217.736 582.265 221.048C582.265 223.064 581.365 223.964 579.385 223.964H570.781C571.357 227.024 573.229 228.752 576.109 228.752C577.693 228.752 578.737 228.32 580.033 226.952C580.393 226.592 580.753 226.412 581.113 226.412ZM573.769 217.304C571.861 217.304 570.673 219.284 570.601 221.624H576.469C576.541 221.372 576.577 221.012 576.577 220.724C576.577 219.032 575.965 217.304 573.769 217.304ZM604.022 233.54C596.93 233.54 591.638 228.536 591.638 220.688C591.638 213.272 596.39 208.016 603.518 208.016C610.25 208.016 613.31 211.688 613.31 214.316C613.31 215.576 612.374 217.196 610.394 217.196C605.786 217.196 606.506 211.112 602.33 211.112C599.882 211.112 598.622 213.092 598.622 217.016C598.622 223.352 602.006 227.708 606.11 227.708C608.486 227.708 609.782 227.168 611.438 225.44C611.87 225.008 612.41 224.648 612.806 224.648C613.634 224.648 614.174 225.224 614.174 226.124C614.174 226.736 614.03 227.312 613.778 227.924C612.77 230.516 609.566 233.54 604.022 233.54ZM625.434 233.504C619.71 233.504 615.714 230.876 615.714 228.176C615.714 226.448 616.866 225.62 618.09 225.62C621.618 225.62 621.69 230.444 625.218 230.444C626.91 230.444 628.35 229.688 628.35 227.816C628.35 225.8 626.586 224.9 622.914 223.064C618.414 220.796 616.722 218.42 616.722 215.252C616.722 210.896 620.358 207.98 625.902 207.98C632.022 207.98 635.01 210.644 635.01 213.2C635.01 214.604 633.966 215.576 632.67 215.576C628.926 215.576 628.998 211.04 626.01 211.04C624.642 211.04 623.274 211.76 623.274 213.416C623.274 215.252 624.606 216.728 628.638 218.492C632.598 220.22 635.334 222.128 635.334 226.232C635.334 230.156 632.166 233.504 625.434 233.504ZM647.337 233.504C641.613 233.504 637.617 230.876 637.617 228.176C637.617 226.448 638.769 225.62 639.993 225.62C643.521 225.62 643.593 230.444 647.121 230.444C648.813 230.444 650.253 229.688 650.253 227.816C650.253 225.8 648.489 224.9 644.817 223.064C640.317 220.796 638.625 218.42 638.625 215.252C638.625 210.896 642.261 207.98 647.805 207.98C653.925 207.98 656.913 210.644 656.913 213.2C656.913 214.604 655.869 215.576 654.573 215.576C650.829 215.576 650.901 211.04 647.913 211.04C646.545 211.04 645.177 211.76 645.177 213.416C645.177 215.252 646.509 216.728 650.541 218.492C654.501 220.22 657.237 222.128 657.237 226.232C657.237 230.156 654.069 233.504 647.337 233.504ZM666.971 225.908C665.387 225.908 664.883 225.476 664.883 223.964V221.372C664.883 219.032 669.815 217.088 669.815 212.804C669.815 211.256 669.059 210.392 667.583 210.392C666.035 210.392 665.495 211.328 664.991 212.336C664.163 214.1 663.155 214.82 661.787 214.82C660.203 214.82 659.339 213.776 659.339 212.444C659.339 210.14 662.435 207.908 667.727 207.908C673.487 207.908 676.475 210.572 676.475 214.424C676.475 220.472 668.699 220.436 668.699 222.488V224.18C668.699 225.332 668.195 225.908 666.971 225.908ZM666.971 233.576C665.207 233.576 663.731 232.568 663.731 230.768C663.731 229.04 665.171 227.96 666.971 227.96C668.951 227.96 670.319 229.076 670.319 230.768C670.319 232.568 668.915 233.576 666.971 233.576Z" fill="black"/>
<g filter="url(#filter0_d_266_3)">
<rect x="1004" y="98" width="245" height="135" rx="21" fill="black"/>
</g>
<path d="M1035.21 145.392C1031.51 145.392 1028.82 142.732 1028.82 138.084C1028.82 133.716 1031.48 130.58 1035.82 130.58C1037.11 130.58 1037.98 130.832 1038.82 131.336V128.9C1038.82 127.78 1038.45 127.36 1037.95 127.052C1037.39 126.688 1037.14 126.52 1037.14 125.988C1037.14 125.008 1040.5 124.084 1042.01 124.084C1043.19 124.084 1043.75 124.7 1043.77 125.596V141.08C1043.77 141.752 1044 142.06 1044.42 142.284C1044.98 142.592 1045.43 142.76 1045.43 143.404C1045.43 144.412 1042.54 145.392 1040.78 145.392C1039.8 145.392 1039.55 145.028 1039.55 143.712V143.208H1039.41C1038.62 144.412 1037.14 145.392 1035.21 145.392ZM1036.86 142.368C1038.15 142.368 1038.79 141.08 1038.79 139.428V138.504C1038.79 135.312 1037.33 132.96 1035.74 132.96C1034.56 132.96 1033.75 133.856 1033.72 136.04C1033.72 138.588 1034.87 142.368 1036.86 142.368ZM1054.19 145.42C1049.82 145.42 1046.32 142.872 1046.29 138.252C1046.32 133.576 1050.02 130.58 1054.33 130.58C1058.61 130.58 1062.03 133.072 1062.06 137.748C1062.03 142.424 1058.59 145.42 1054.19 145.42ZM1054.95 143.152C1056.21 143.152 1056.88 142.116 1056.88 140.268C1056.88 137.524 1055.73 132.848 1053.43 132.848C1052.09 132.848 1051.47 133.884 1051.47 135.676C1051.47 138.504 1052.62 143.152 1054.95 143.152ZM1078.82 145.392C1076.74 145.392 1075.46 144.664 1074.53 143.684H1074.39V143.964C1074.39 144.888 1074.08 145 1073.16 145H1070.84C1069.83 145 1068.99 144.944 1068.99 144.02C1068.99 142.956 1070.22 142.928 1070.22 141.808L1070.19 128.872C1070.19 127.808 1069.83 127.36 1069.38 127.052C1068.9 126.716 1068.54 126.548 1068.54 125.988C1068.54 124.98 1071.84 124.056 1073.38 124.056C1074.59 124.056 1075.15 124.7 1075.15 125.568V132.204C1076.24 131.084 1077.58 130.58 1079.04 130.58C1082.23 130.58 1085.14 133.1 1085.14 137.804C1085.14 142.172 1082.76 145.392 1078.82 145.392ZM1078.23 143.04C1079.38 143.04 1080.22 142.144 1080.22 139.988C1080.24 137.328 1079.1 133.548 1077.11 133.548C1075.9 133.52 1075.18 134.668 1075.18 136.376V137.524C1075.18 140.604 1076.58 143.04 1078.23 143.04ZM1099.25 139.876C1099.73 139.876 1100.12 140.296 1100.12 140.884C1100.12 141.22 1100.04 141.556 1099.9 141.92C1099.23 143.712 1097.27 145.392 1094.24 145.392C1089.57 145.392 1086.6 142.592 1086.6 138.308C1086.6 133.884 1089.51 130.636 1094.02 130.636C1097.91 130.636 1100.15 133.128 1100.15 135.704C1100.15 137.272 1099.45 137.972 1097.91 137.972H1091.22C1091.67 140.352 1093.12 141.696 1095.36 141.696C1096.59 141.696 1097.41 141.36 1098.41 140.296C1098.69 140.016 1098.97 139.876 1099.25 139.876ZM1093.54 132.792C1092.06 132.792 1091.13 134.332 1091.08 136.152H1095.64C1095.7 135.956 1095.73 135.676 1095.73 135.452C1095.73 134.136 1095.25 132.792 1093.54 132.792ZM1108.25 145.392C1103.07 145.392 1102.96 141.332 1102.96 138.364V133.268H1102.15C1101.5 133.24 1101.05 132.876 1101.05 132.176C1101.05 131.224 1101.64 131 1102.37 131H1102.68C1105.98 131 1105.11 126.184 1107.05 126.184C1107.83 126.184 1107.97 126.716 1107.97 127.92V131H1110.63C1111.33 131 1111.86 131.224 1111.86 132.064C1111.86 132.876 1111.53 133.268 1110.52 133.268H1108V140.996C1108 142.34 1108.05 143.18 1108.95 143.18C1109.68 143.18 1110.04 142.592 1110.04 140.884C1110.04 139.736 1110.55 139.008 1111.61 139.008C1112.59 139.008 1113.15 139.652 1113.15 140.968C1113.15 143.012 1112 145.392 1108.25 145.392ZM1120.58 145.392C1115.4 145.392 1115.29 141.332 1115.29 138.364V133.268H1114.48C1113.83 133.24 1113.39 132.876 1113.39 132.176C1113.39 131.224 1113.97 131 1114.7 131H1115.01C1118.31 131 1117.45 126.184 1119.38 126.184C1120.16 126.184 1120.3 126.716 1120.3 127.92V131H1122.96C1123.66 131 1124.19 131.224 1124.19 132.064C1124.19 132.876 1123.86 133.268 1122.85 133.268H1120.33V140.996C1120.33 142.34 1120.39 143.18 1121.28 143.18C1122.01 143.18 1122.37 142.592 1122.37 140.884C1122.37 139.736 1122.88 139.008 1123.94 139.008C1124.92 139.008 1125.48 139.652 1125.48 140.968C1125.48 143.012 1124.33 145.392 1120.58 145.392ZM1138.9 139.876C1139.38 139.876 1139.77 140.296 1139.77 140.884C1139.77 141.22 1139.69 141.556 1139.55 141.92C1138.87 143.712 1136.91 145.392 1133.89 145.392C1129.21 145.392 1126.25 142.592 1126.25 138.308C1126.25 133.884 1129.16 130.636 1133.67 130.636C1137.56 130.636 1139.8 133.128 1139.8 135.704C1139.8 137.272 1139.1 137.972 1137.56 137.972H1130.87C1131.31 140.352 1132.77 141.696 1135.01 141.696C1136.24 141.696 1137.05 141.36 1138.06 140.296C1138.34 140.016 1138.62 139.876 1138.9 139.876ZM1133.19 132.792C1131.71 132.792 1130.78 134.332 1130.73 136.152H1135.29C1135.35 135.956 1135.37 135.676 1135.37 135.452C1135.37 134.136 1134.9 132.792 1133.19 132.792ZM1143.22 145C1142.29 145 1141.51 144.888 1141.51 144.02C1141.51 143.068 1142.74 143.012 1142.74 141.892V135.368C1142.77 134.416 1142.43 134.024 1142.1 133.772C1141.54 133.38 1141.12 133.212 1141.12 132.568C1141.12 131.616 1144.37 130.608 1145.93 130.608C1146.89 130.608 1147.19 131.028 1147.19 132.064V133.352H1147.36C1148.03 131.476 1149.55 130.608 1150.78 130.608C1152.49 130.608 1153.27 131.672 1153.27 133.212C1153.27 134.864 1152.37 135.76 1150.83 135.76C1149.97 135.76 1149.71 135.48 1148.9 135.48C1148.26 135.48 1147.75 135.872 1147.75 137.272V141.892C1147.75 143.012 1148.99 143.068 1148.99 144.02C1148.99 144.888 1148.2 145 1147.28 145H1143.22ZM1165.95 145.392C1160.77 145.392 1160.65 141.332 1160.65 138.364V133.268H1159.84C1159.2 133.24 1158.75 132.876 1158.75 132.176C1158.75 131.224 1159.34 131 1160.07 131H1160.37C1163.68 131 1162.81 126.184 1164.74 126.184C1165.53 126.184 1165.67 126.716 1165.67 127.92V131H1168.33C1169.03 131 1169.56 131.224 1169.56 132.064C1169.56 132.876 1169.22 133.268 1168.21 133.268H1165.69V140.996C1165.69 142.34 1165.75 143.18 1166.65 143.18C1167.37 143.18 1167.74 142.592 1167.74 140.884C1167.74 139.736 1168.24 139.008 1169.31 139.008C1170.29 139.008 1170.85 139.652 1170.85 140.968C1170.85 143.012 1169.7 145.392 1165.95 145.392ZM1173.26 145C1172.34 145 1171.58 144.888 1171.58 144.02C1171.58 143.068 1172.81 143.012 1172.81 141.892V128.844C1172.81 127.892 1172.51 127.5 1172.14 127.248C1171.61 126.856 1171.16 126.688 1171.16 126.044C1171.16 125.092 1174.52 124.084 1175.98 124.084C1176.96 124.084 1177.27 124.532 1177.27 125.54V133.156H1177.41C1178.27 131.672 1179.73 130.58 1181.86 130.58C1185.47 130.58 1186.62 133.1 1186.62 136.992V141.892C1186.62 143.012 1187.85 143.068 1187.85 144.048C1187.85 144.888 1187.07 145 1186.14 145H1182.08C1181.16 145 1180.37 144.888 1180.37 144.048C1180.37 143.068 1181.61 143.012 1181.61 141.892V137.608C1181.61 135.48 1181.1 134.332 1179.76 134.332C1178.39 134.332 1177.8 135.62 1177.8 137.356V141.892C1177.8 143.012 1179.03 143.068 1179.03 144.02C1179.03 144.888 1178.27 145 1177.32 145H1173.26ZM1193.09 145.392C1190.34 145.392 1189.03 143.488 1189.03 141.696C1189.03 138.364 1193.03 137.636 1195.58 136.208C1196.87 135.564 1197.37 134.948 1197.37 133.94C1197.37 133.044 1196.92 132.344 1195.92 132.344C1194.94 132.344 1194.29 133.072 1193.93 133.968C1193.45 135.452 1192.72 136.068 1191.58 136.068C1190.57 136.068 1189.62 135.424 1189.62 134.108C1189.62 132.624 1191.58 130.58 1196 130.58C1200.73 130.58 1202.47 133.072 1202.55 137.468V141.78C1202.55 143.488 1203.78 142.872 1203.78 144.048C1203.78 144.804 1202.8 145.42 1201.15 145.42C1199.19 145.42 1198.1 144.328 1198.1 143.068V142.816H1197.96C1197.06 144.44 1195.61 145.392 1193.09 145.392ZM1195.36 142.284C1196.56 142.284 1197.65 141.388 1197.65 139.428V137.72L1196.28 138.252C1194.77 138.84 1193.82 139.596 1193.82 140.688C1193.82 141.696 1194.49 142.284 1195.36 142.284ZM1206.85 145C1205.92 145 1205.14 144.888 1205.14 144.02C1205.14 143.068 1206.37 143.012 1206.37 141.892V135.312C1206.4 134.36 1206.06 133.968 1205.73 133.716C1205.17 133.324 1204.75 133.184 1204.75 132.54C1204.75 131.56 1208.02 130.58 1209.56 130.58C1210.54 130.58 1210.82 131 1210.85 132.036V133.156H1210.99C1211.83 131.56 1213.37 130.58 1215.39 130.58C1218.72 130.58 1220.17 132.708 1220.17 136.404V141.892C1220.17 143.012 1221.41 143.068 1221.41 144.02C1221.41 144.888 1220.65 145 1219.73 145H1215.67C1214.71 145 1213.96 144.888 1213.96 144.02C1213.96 143.068 1215.19 143.012 1215.19 141.892V137.132C1215.19 135.312 1214.69 134.304 1213.37 134.304C1211.97 134.304 1211.38 135.592 1211.38 137.328V141.892C1211.38 143.012 1212.61 143.068 1212.61 144.02C1212.61 144.888 1211.83 145 1210.91 145H1206.85Z" fill="white"/>
</g>
<defs>
<filter id="filter0_d_266_3" x="986" y="80" width="281" height="171" filterUnits="userSpaceOnUse" color-interpolation-filters="sRGB">
<feFlood flood-opacity="0" result="BackgroundImageFix"/>
<feColorMatrix in="SourceAlpha" type="matrix" values="0 0 0 0 0 0 0 0 0 0 0 0 0 0 0 0 0 0 127 0" result="hardAlpha"/>
<feMorphology radius="3" operator="dilate" in="SourceAlpha" result="effect1_dropShadow_266_3"/>
<feOffset/>
<feGaussianBlur stdDeviation="7.5"/>
<feComposite in2="hardAlpha" operator="out"/>
<feColorMatrix type="matrix" values="0 0 0 0 0.998667 0 0 0 0 0.998667 0 0 0 0 0.998667 0 0 0 0.48 0"/>
<feBlend mode="normal" in2="BackgroundImageFix" result="effect1_dropShadow_266_3"/>
<feBlend mode="normal" in="SourceGraphic" in2="effect1_dropShadow_266_3" result="shape"/>
</filter>
<linearGradient id="paint0_linear_266_3" x1="482.5" y1="0" x2="482.5" y2="720" gradientUnits="userSpaceOnUse">
<stop offset="0.360577" stop-color="white"/>
<stop offset="1" stop-color="#D3D4D4"/>
</linearGradient>
<clipPath id="clip0_266_3">
<rect width="1280" height="720" fill="white"/>
</clipPath>
</defs>
</svg>
